<?xml version="1.0" encoding="utf-8"?>
<!-- Generator: Adobe Illustrator 21.1.0, SVG Export Plug-In . SVG Version: 6.00 Build 0)  -->
<svg version="1.1" id="Layer_1" xmlns="http://www.w3.org/2000/svg" xmlns:xlink="http://www.w3.org/1999/xlink" x="0px" y="0px"
	 viewBox="0 0 35 35" style="enable-background:new 0 0 35 35;" xml:space="preserve">
<style type="text/css">
	.st0{fill:#333333;}
	.st1{fill:none;stroke:#333333;stroke-miterlimit:10;}
	.st2{fill:none;stroke:#333333;stroke-linecap:round;stroke-miterlimit:10;}
	.st3{fill:none;stroke:#333333;stroke-linejoin:round;stroke-miterlimit:10;}
	.st4{fill:none;stroke:#333333;stroke-linecap:round;stroke-linejoin:round;stroke-miterlimit:10;}
	.st5{fill:#333333;stroke:#333333;stroke-miterlimit:10;}
	.st6{fill:#FFFFFF;}
</style>
<g>
	<path class="st0" d="M13.7,2.8c6,0,10.9,4.9,10.9,10.9s-4.9,10.9-10.9,10.9S2.8,19.7,2.8,13.7S7.7,2.8,13.7,2.8 M13.7,1.8
		C7.1,1.8,1.8,7.1,1.8,13.7s5.3,11.9,11.9,11.9s11.9-5.3,11.9-11.9S20.3,1.8,13.7,1.8L13.7,1.8z"/>
</g>
<path class="st4" d="M13.7,6c4.3,0,7.7,3.4,7.7,7.7"/>
<line class="st4" x1="22" y1="22" x2="23.4" y2="23.4"/>
<rect x="26" y="22.5" transform="matrix(-0.7071 0.7071 -0.7071 -0.7071 66.05 27.3588)" class="st3" width="2.8" height="9.8"/>
</svg>
